<svg width="300" height="300" viewBox="0 0 300 300" fill="none" xmlns="http://www.w3.org/2000/svg">
<path d="M270 81L150 143.795V295L270 220.637V81Z" fill="#849FFF"/>
<path d="M265 217.853V89.2597L155 146.822V286.019L265 217.853Z" stroke="#0038FF" stroke-opacity="0.33" stroke-width="10"/>
<path d="M30 81L150 143.795V295L30 220.637V81Z" fill="#849FFF"/>
<path d="M35 217.853V89.2597L145 146.822V286.019L35 217.853Z" stroke="#1E48DF" stroke-opacity="0.17" stroke-width="10"/>
<path d="M150 22L270 81L150 144L30 81L150 22Z" fill="#849FFF"/>
<path d="M41.0349 81.1462L150 27.5717L258.965 81.1462L150 138.353L41.0349 81.1462Z" stroke="#0F36BF" stroke-opacity="0.29" stroke-width="10"/>
<g filter="url(#filter0_b)">
<path d="M110.246 202.368C107.5 206.302 103.659 209.252 98.7236 211.219C93.8252 213.148 88.1104 214.113 81.5791 214.113C74.9736 214.113 69.1104 212.573 63.9893 209.493C58.8682 206.376 54.8975 201.96 52.0771 196.245C49.2939 190.53 47.8652 183.906 47.791 176.373V169.304C47.791 157.095 50.6299 147.632 56.3076 140.915C62.0225 134.198 70.0381 130.84 80.3545 130.84C88.8154 130.84 95.625 133.011 100.783 137.353C105.941 141.657 109.096 147.78 110.246 155.722H99.5586C97.5547 144.997 91.1719 139.635 80.4102 139.635C73.248 139.635 67.8115 142.158 64.1006 147.205C60.4268 152.215 58.5713 159.488 58.5342 169.025V175.649C58.5342 184.741 60.6123 191.978 64.7686 197.358C68.9248 202.702 74.5469 205.374 81.6348 205.374C85.6426 205.374 89.1494 204.929 92.1553 204.038C95.1611 203.147 97.6475 201.645 99.6143 199.529V181.327H80.8555V172.644H110.246V202.368ZM157.839 180.214H138.802V213H128.059V131.953H154.889C164.018 131.953 171.031 134.031 175.93 138.188C180.865 142.344 183.333 148.393 183.333 156.334C183.333 161.381 181.96 165.778 179.214 169.526C176.505 173.274 172.72 176.076 167.858 177.932L186.896 212.332V213H175.429L157.839 180.214ZM138.802 171.475H155.223C160.529 171.475 164.741 170.102 167.858 167.355C171.013 164.609 172.59 160.936 172.59 156.334C172.59 151.324 171.087 147.483 168.081 144.812C165.112 142.14 160.808 140.785 155.167 140.748H138.802V171.475ZM248.794 213H195.69V205.597L223.745 174.425C227.901 169.712 230.759 165.89 232.317 162.958C233.913 159.989 234.711 156.928 234.711 153.773C234.711 149.543 233.431 146.073 230.87 143.364C228.31 140.655 224.896 139.301 220.628 139.301C215.507 139.301 211.518 140.767 208.66 143.698C205.84 146.593 204.43 150.638 204.43 155.833H194.132C194.132 148.374 196.525 142.344 201.312 137.742C206.137 133.141 212.575 130.84 220.628 130.84C228.161 130.84 234.117 132.825 238.496 136.796C242.875 140.729 245.064 145.98 245.064 152.549C245.064 160.527 239.98 170.027 229.812 181.049L208.104 204.595H248.794V213Z" fill="#0038FF"/>
</g>
<defs>
<filter id="filter0_b" x="27.791" y="110.84" width="241.003" height="123.273" filterUnits="userSpaceOnUse" color-interpolation-filters="sRGB">
<feFlood flood-opacity="0" result="BackgroundImageFix"/>
<feGaussianBlur in="BackgroundImage" stdDeviation="10"/>
<feComposite in2="SourceAlpha" operator="in" result="effect1_backgroundBlur"/>
<feBlend mode="normal" in="SourceGraphic" in2="effect1_backgroundBlur" result="shape"/>
</filter>
</defs>
</svg>
